<svg xmlns="http://www.w3.org/2000/svg" width="206" height="59" viewBox="0 0 206 59" fill="none"> ::::::<rect width="206" height="59" fill="white"/> ::::::<path fill-rule="evenodd" clip-rule="evenodd" d="M133 27C133 22.5817 136.582 19 141 19C145.418 19 149 22.5817 149 27C149 31.4183 145.418 35 141 35C136.582 35 133 31.4183 133 27ZM123.5 20.5H109.5C108.948 20.5 108.5 20.9477 108.5 21.5V32.5C108.5 33.0523 108.948 33.5 109.5 33.5H123.5C124.052 33.5 124.5 33.0523 124.5 32.5V21.5C124.5 20.9477 124.052 20.5 123.5 20.5ZM74.5 26.5H78.5C79.0523 26.5 79.5 26.9477 79.5 27.5V37.5C79.5 38.0523 79.9477 38.5 80.5 38.5H87.5C88.0523 38.5 88.5 38.9477 88.5 39.5V43.5C88.5 44.0523 88.0523 44.5 87.5 44.5H74.5C73.9477 44.5 73.5 44.0523 73.5 43.5V27.5C73.5 26.9477 73.9477 26.5 74.5 26.5ZM92.5 27.5H95.5C96.0523 27.5 96.5 27.9477 96.5 28.5V34.5C96.5 35.0523 96.9477 35.5 97.5 35.5H101.5C102.052 35.5 102.5 35.9477 102.5 36.5V39.5C102.5 40.0523 102.052 40.5 101.5 40.5H97.5C96.9477 40.5 96.5 40.9477 96.5 41.5V45.5C96.5 46.0523 96.0523 46.5 95.5 46.5H92.5C91.9477 46.5 91.5 46.0523 91.5 45.5V28.5C91.5 27.9477 91.9477 27.5 92.5 27.5ZM107.5 37.5H126.5C127.052 37.5 127.5 37.9477 127.5 38.5V41.5C127.5 42.0523 127.052 42.5 126.5 42.5H120.5C119.948 42.5 119.5 42.9477 119.5 43.5V47.5C119.5 48.0523 119.052 48.5 118.5 48.5H115.5C114.948 48.5 114.5 48.0523 114.5 47.5V43.5C114.5 42.9477 114.052 42.5 113.5 42.5H107.5C106.948 42.5 106.5 42.0523 106.5 41.5V38.5C106.5 37.9477 106.948 37.5 107.5 37.5ZM133.5 37.5H150.5C151.052 37.5 151.5 37.9477 151.5 38.5V41.5C151.5 42.0523 151.052 42.5 150.5 42.5H145.5C144.948 42.5 144.5 42.9477 144.5 43.5V47.5C144.5 48.0523 144.052 48.5 143.5 48.5H140.5C139.948 48.5 139.5 48.0523 139.5 47.5V43.5C139.5 42.9477 139.052 42.5 138.5 42.5H133.5C132.948 42.5 132.5 42.0523 132.5 41.5V38.5C132.5 37.9477 132.948 37.5 133.5 37.5ZM158 20.5H155C154.448 20.5 154 20.9477 154 21.5V46.5C154 47.0523 154.448 47.5 155 47.5H158C158.552 47.5 159 47.0523 159 46.5V21.5C159 20.9477 158.552 20.5 158 20.5ZM166.5 26.5H179.5C180.052 26.5 180.5 26.9477 180.5 27.5V43.5C180.5 44.0523 180.052 44.5 179.5 44.5H176.5C175.948 44.5 175.5 44.0523 175.5 43.5V39.5C175.5 38.9477 175.052 38.5 174.5 38.5H166.5C165.948 38.5 165.5 38.0523 165.5 37.5V35.5C165.5 34.9477 165.948 34.5 166.5 34.5H174.5C175.052 34.5 175.5 34.0523 175.5 33.5V32.5C175.5 31.9477 175.052 31.5 174.5 31.5H166.5C165.948 31.5 165.5 31.0523 165.5 30.5V27.5C165.5 26.9477 165.948 26.5 166.5 26.5ZM191 46.5H188C187.448 46.5 187 46.0523 187 45.5V29.5C187 28.9477 187.448 28.5 188 28.5H191C191.552 28.5 192 28.9477 192 29.5V45.5C192 46.0523 191.552 46.5 191 46.5ZM144 27C144 28.6569 142.657 30 141 30C139.343 30 138 28.6569 138 27C138 25.3431 139.343 24 141 24C142.657 24 144 25.3431 144 27ZM114 25H119C119.552 25 120 25.4477 120 26V28C120 28.5523 119.552 29 119 29H114C113.448 29 113 28.5523 113 28V26C113 25.4477 113.448 25 114 25Z" fill="#614D42"/> ::::::<path d="M100 22.5C100 26.0899 97.0899 29 93.5 29C89.9101 29 87 26.0899 87 22.5C87 18.9101 89.9101 16 93.5 16C97.0899 16 100 18.9101 100 22.5ZM90.9 22.5C90.9 23.9359 92.0641 25.1 93.5 25.1C94.9359 25.1 96.1 23.9359 96.1 22.5C96.1 21.0641 94.9359 19.9 93.5 19.9C92.0641 19.9 90.9 21.0641 90.9 22.5Z" fill="url(#paint0_linear_3_4)"/> ::::::<path d="M196 23.5C196 27.0899 193.09 30 189.5 30C185.91 30 183 27.0899 183 23.5C183 19.9101 185.91 17 189.5 17C193.09 17 196 19.9101 196 23.5ZM186.9 23.5C186.9 24.9359 188.064 26.1 189.5 26.1C190.936 26.1 192.1 24.9359 192.1 23.5C192.1 22.0641 190.936 20.9 189.5 20.9C188.064 20.9 186.9 22.0641 186.9 23.5Z" fill="url(#paint1_linear_3_4)"/> ::::::<path d="M163 16.5C163 20.0899 160.09 23 156.5 23C152.91 23 150 20.0899 150 16.5C150 12.9101 152.91 10 156.5 10C160.09 10 163 12.9101 163 16.5ZM153.9 16.5C153.9 17.9359 155.064 19.1 156.5 19.1C157.936 19.1 159.1 17.9359 159.1 16.5C159.1 15.0641 157.936 13.9 156.5 13.9C155.064 13.9 153.9 15.0641 153.9 16.5Z" fill="url(#paint2_linear_3_4)"/> ::::::<path d="M35.5 29.5L37 33M41.5 43.5L39.5714 39M39.5714 39L51.5 33.5M39.5714 39L37 33M37 33L26 38.6667M20.5 41.5L26 38.6667M26 38.6667L19.5 24.5" stroke="#614D42" stroke-width="3" stroke-linecap="round" stroke-linejoin="round"/> ::::::<path d="M24 19.5C24 23.0899 21.0899 26 17.5 26C13.9101 26 11 23.0899 11 19.5C11 15.9101 13.9101 13 17.5 13C21.0899 13 24 15.9101 24 19.5ZM14.9 19.5C14.9 20.9359 16.0641 22.1 17.5 22.1C18.9359 22.1 20.1 20.9359 20.1 19.5C20.1 18.0641 18.9359 16.9 17.5 16.9C16.0641 16.9 14.9 18.0641 14.9 19.5Z" fill="url(#paint3_linear_3_4)"/> ::::::<path d="M40 24.5C40 28.0899 37.0899 31 33.5 31C29.9101 31 27 28.0899 27 24.5C27 20.9101 29.9101 18 33.5 18C37.0899 18 40 20.9101 40 24.5ZM30.9 24.5C30.9 25.9359 32.0641 27.1 33.5 27.1C34.9359 27.1 36.1 25.9359 36.1 24.5C36.1 23.0641 34.9359 21.9 33.5 21.9C32.0641 21.9 30.9 23.0641 30.9 24.5Z" fill="url(#paint4_linear_3_4)"/> ::::::<path d="M63 31.5C63 35.0899 60.0899 38 56.5 38C52.9101 38 50 35.0899 50 31.5C50 27.9101 52.9101 25 56.5 25C60.0899 25 63 27.9101 63 31.5ZM53.9 31.5C53.9 32.9359 55.0641 34.1 56.5 34.1C57.9359 34.1 59.1 32.9359 59.1 31.5C59.1 30.0641 57.9359 28.9 56.5 28.9C55.0641 28.9 53.9 30.0641 53.9 31.5Z" fill="url(#paint5_linear_3_4)"/> ::::::<path d="M23 42.5C23 46.0899 20.0899 49 16.5 49C12.9101 49 10 46.0899 10 42.5C10 38.9101 12.9101 36 16.5 36C20.0899 36 23 38.9101 23 42.5ZM13.9 42.5C13.9 43.9359 15.0641 45.1 16.5 45.1C17.9359 45.1 19.1 43.9359 19.1 42.5C19.1 41.0641 17.9359 39.9 16.5 39.9C15.0641 39.9 13.9 41.0641 13.9 42.5Z" fill="url(#paint6_linear_3_4)"/> ::::::<defs> ::::::<linearGradient id="paint0_linear_3_4" x1="87" y1="22.5" x2="100" y2="22.5" gradientUnits="userSpaceOnUse"> ::::::<stop stop-color="#00A495"/> ::::::<stop offset="1" stop-color="#13AD65"/> ::::::</linearGradient> ::::::<linearGradient id="paint1_linear_3_4" x1="183" y1="23.5" x2="196" y2="23.5" gradientUnits="userSpaceOnUse"> ::::::<stop stop-color="#00A495"/> ::::::<stop offset="1" stop-color="#13AD65"/> ::::::</linearGradient> ::::::<linearGradient id="paint2_linear_3_4" x1="150" y1="16.5" x2="163" y2="16.5" gradientUnits="userSpaceOnUse"> ::::::<stop stop-color="#00A495"/> ::::::<stop offset="1" stop-color="#13AD65"/> ::::::</linearGradient> ::::::<linearGradient id="paint3_linear_3_4" x1="11" y1="19.5" x2="24" y2="19.5" gradientUnits="userSpaceOnUse"> ::::::<stop stop-color="#00A495"/> ::::::<stop offset="1" stop-color="#13AD65"/> ::::::</linearGradient> ::::::<linearGradient id="paint4_linear_3_4" x1="27" y1="24.5" x2="40" y2="24.5" gradientUnits="userSpaceOnUse"> ::::::<stop stop-color="#00A495"/> ::::::<stop offset="1" stop-color="#13AD65"/> ::::::</linearGradient> ::::::<linearGradient id="paint5_linear_3_4" x1="50" y1="31.5" x2="63" y2="31.5" gradientUnits="userSpaceOnUse"> ::::::<stop stop-color="#00A495"/> ::::::<stop offset="1" stop-color="#13AD65"/> ::::::</linearGradient> ::::::<linearGradient id="paint6_linear_3_4" x1="10" y1="42.5" x2="23" y2="42.5" gradientUnits="userSpaceOnUse"> ::::::<stop stop-color="#00A495"/> ::::::<stop offset="1" stop-color="#13AD65"/> ::::::</linearGradient> ::::::</defs> ::::::</svg>