<svg width="195" height="32" viewBox="0 0 195 32" fill="none" xmlns="http://www.w3.org/2000/svg">
<path fill-rule="evenodd" clip-rule="evenodd" d="M15 1C14.3529 1 13.7304 1.24453 13.2602 1.6834L1.76973 12.4042C1.21076 12.9256 0.76542 13.5542 0.46113 14.2514C0.15683 14.9486 -7.99694e-05 15.6998 3.05754e-08 16.459V28.4998C3.05754e-08 29.1629 0.26681 29.7988 0.74174 30.2677C1.21667 30.7366 1.86082 31 2.53247 31H27.4675C28.1392 31 28.7833 30.7366 29.2583 30.2677C29.7332 29.7988 30 29.1629 30 28.4998V16.459C30.0001 15.6998 29.8432 14.9486 29.5389 14.2514C29.2346 13.5542 28.7893 12.9256 28.2303 12.4043L16.7399 1.68348C16.2697 1.24461 15.6471 1 15 1ZM23.1818 21.2359C23.1008 21.4765 21.1207 27.1536 15 27.1536C8.8793 27.1536 6.8992 21.4765 6.8182 21.2359L9.957 20.23C10.0083 20.3824 11.3008 23.9453 15 23.9453C18.7275 23.9453 20.0124 20.3212 20.0409 20.2408L20.0413 20.2397L23.1818 21.2359Z" fill="#0E7159"/>
<path fill-rule="evenodd" clip-rule="evenodd" d="M66.1882 1.56982H70.6169V29.1272C70.6169 29.8621 69.8177 30.0291 68.3859 30.0291C67.0207 30.0291 66.1882 29.8621 66.1882 29.1272V1.56982ZM59.462 12.8934V28.8266C59.462 29.5281 60.2612 29.6951 61.6264 29.6951C63.0249 29.6951 63.7908 29.5281 63.7908 28.8266V1.90385H59.462V8.98528H55.1666V12.8934H59.462ZM54.5672 22.5135C55.1317 23.2055 55.4009 23.0088 56.5427 22.1745C56.6134 22.1229 56.6873 22.0688 56.7649 22.0124C57.8304 21.2108 58.0635 20.6763 57.564 20.0417C56.5318 18.8391 55.0001 16.6012 54.0678 14.43C53.3019 12.5928 52.7025 10.455 52.7025 8.35058V3.54059H48.0075V8.35058C48.0075 9.95398 47.7411 11.5907 47.3083 13.0938C46.5424 15.5991 44.9441 18.3715 43.2126 20.4759C42.7131 21.0771 43.1127 21.645 44.2115 22.4801C45.4436 23.4488 45.8431 23.6492 46.4425 22.9811C47.841 21.4112 49.6058 18.6721 50.5715 16.0333C51.5371 18.4717 53.202 20.9101 54.5672 22.5135Z" fill="#0E7159"/>
<path fill-rule="evenodd" clip-rule="evenodd" d="M99.776 1.56982H95.18V29.1941C95.18 29.9623 96.0459 30.1293 97.445 30.1293C98.943 30.1293 99.776 29.9289 99.776 29.1607V1.56982ZM87.5884 12.9268C87.5884 15.9331 85.8236 17.8371 83.3929 17.8371C80.9621 17.8371 79.1973 15.9331 79.1973 12.9268C79.1973 9.95398 80.9621 8.01658 83.3929 8.01658C85.8236 8.01658 87.5884 9.95398 87.5884 12.9268ZM83.3929 21.6784C78.3316 21.6784 74.7354 18.1711 74.7354 12.9268C74.7354 7.68258 78.3316 4.17524 83.3929 4.17524C88.4542 4.17524 92.0837 7.68258 92.0837 12.9268C92.0837 18.1711 88.4542 21.6784 83.3929 21.6784Z" fill="#0E7159"/>
<path fill-rule="evenodd" clip-rule="evenodd" d="M128.924 7.38182C129.823 7.38182 129.957 6.78062 129.957 5.4779C129.957 4.20859 129.823 3.54053 128.924 3.54053H107.547V7.38182H111.443V14.8975H107.547V18.7388H128.924C129.823 18.7388 129.957 18.1376 129.957 16.8349C129.957 15.5656 129.823 14.8975 128.924 14.8975H125.361V7.38182H128.924ZM104.484 23.1814V27.0896H132.054C132.953 27.0896 133.087 26.4549 133.087 25.1522C133.087 23.8829 132.953 23.1814 132.054 23.1814H104.484ZM115.871 14.8975H120.933V7.38182H115.871V14.8975Z" fill="#0E7159"/>
<path fill-rule="evenodd" clip-rule="evenodd" d="M141.767 8.952C141.767 8.1169 142.067 7.3152 142.466 6.6138H138.803V3.03966H147.294V0H151.723V3.03966H159.648C160.547 3.03966 160.68 3.57411 160.68 4.84342C160.68 6.1461 160.547 6.6138 159.648 6.6138H156.385C156.784 7.3152 157.117 8.1169 157.117 8.952C157.117 11.7244 154.953 13.7954 151.889 14.4969V16.4342H163.011C163.91 16.4342 164.043 17.0021 164.043 18.2714C164.043 19.5741 163.91 20.0752 163.011 20.0752H135.44V16.4342H147.294V14.5637C144.064 13.929 141.767 11.8246 141.767 8.952ZM140.768 30.4635C140.102 29.7954 139.436 28.7599 139.436 28.0585V21.9457H159.748V29.4948C159.748 31.0647 158.982 32 157.384 32H143.498C142.699 32 141.534 31.2651 140.768 30.4635ZM144.464 28.4593C144.098 28.4593 143.931 28.3591 143.931 27.8914V25.4864H155.253V28.4593H144.464ZM149.425 11.2902C151.29 11.2902 152.622 10.4551 152.622 8.952C152.622 7.4489 151.29 6.6138 149.425 6.6138C147.594 6.6138 146.262 7.4489 146.262 8.952C146.262 10.4551 147.594 11.2902 149.425 11.2902Z" fill="#0E7159"/>
<path fill-rule="evenodd" clip-rule="evenodd" d="M170.093 7.6157V3.70752H190.272C191.171 3.70752 191.304 4.40898 191.304 5.6783C191.304 6.981 191.171 7.6157 190.272 7.6157H182.913C183.046 8.0165 183.212 8.4173 183.446 8.7514C184.943 11.0053 187.911 12.6092 190.517 14.0173C190.924 14.237 191.321 14.4519 191.703 14.6637C192.369 15.0311 192.236 15.4319 191.504 16.7013C190.671 18.171 190.505 18.338 189.639 17.9706C186.809 16.7681 182.513 14.4967 180.449 11.5906C178.617 14.4633 173.689 17.3025 171.492 18.2712C170.692 18.6052 170.393 18.4716 169.594 17.0687C168.828 15.6992 168.628 15.1647 169.361 14.7639C171.725 13.4946 175.121 11.6574 176.719 9.553C177.186 8.9184 177.585 8.3171 177.818 7.6157H170.093ZM166.397 27.0896V23.1814H193.968C194.867 23.1814 195 23.8829 195 25.1522C195 26.4549 194.867 27.0896 193.968 27.0896H166.397Z" fill="#0E7159"/>
</svg>
