<svg width="36" height="35" viewBox="0 0 36 35" fill="none" xmlns="http://www.w3.org/2000/svg">
<path d="M17.0489 0.927052C17.3483 0.00574167 18.6517 0.00574016 18.9511 0.927051L22.4903 11.8197C22.6242 12.2317 23.0081 12.5106 23.4413 12.5106H34.8945C35.8632 12.5106 36.266 13.7503 35.4823 14.3197L26.2165 21.0517C25.866 21.3063 25.7193 21.7577 25.8532 22.1697L29.3924 33.0623C29.6918 33.9836 28.6373 34.7497 27.8536 34.1803L18.5878 27.4483C18.2373 27.1937 17.7627 27.1937 17.4122 27.4483L8.14641 34.1803C7.3627 34.7497 6.30821 33.9836 6.60757 33.0623L10.1468 22.1697C10.2807 21.7577 10.134 21.3063 9.78352 21.0517L0.517712 14.3197C-0.266001 13.7503 0.136773 12.5106 1.1055 12.5106H12.5587C12.9919 12.5106 13.3758 12.2317 13.5097 11.8197L17.0489 0.927052Z" fill="#D9D9D9"/>
</svg>
