<svg width="42" height="42" viewBox="0 0 42 42" fill="none" xmlns="http://www.w3.org/2000/svg">
<g id="&#235;&#179;&#132;&#236;&#160;&#144;">
<path id="star 3" d="M20.0489 2.92705C20.3483 2.00574 21.6517 2.00574 21.9511 2.92705L25.4903 13.8197C25.6242 14.2317 26.0081 14.5106 26.4413 14.5106H37.8945C38.8632 14.5106 39.266 15.7503 38.4823 16.3197L29.2165 23.0517C28.866 23.3063 28.7193 23.7577 28.8532 24.1697L32.3924 35.0623C32.6918 35.9836 31.6373 36.7497 30.8536 36.1803L21.5878 29.4483C21.2373 29.1937 20.7627 29.1937 20.4122 29.4483L11.1464 36.1803C10.3627 36.7497 9.30821 35.9836 9.60757 35.0623L13.1468 24.1697C13.2807 23.7577 13.134 23.3063 12.7835 23.0517L3.51771 16.3197C2.734 15.7503 3.13677 14.5106 4.1055 14.5106H15.5587C15.9919 14.5106 16.3758 14.2317 16.5097 13.8197L20.0489 2.92705Z" fill="#F7D500"/>
</g>
</svg>
