<svg width="30" height="25" viewBox="0 0 30 25" fill="none" xmlns="http://www.w3.org/2000/svg">
<path fill-rule="evenodd" clip-rule="evenodd" d="M24.9239 4.382C25.8229 4.382 25.9569 3.7808 25.9569 2.47808C25.9569 1.20877 25.8229 0.54071 24.9239 0.54071H3.54689V4.382H7.44289V11.8977H3.54689V15.739H24.9239C25.8229 15.739 25.9569 15.1378 25.9569 13.8351C25.9569 12.5658 25.8229 11.8977 24.9239 11.8977H21.3609V4.382H24.9239ZM0.483887 20.1816V24.0898H28.0539C28.9529 24.0898 29.0869 23.4551 29.0869 22.1524C29.0869 20.8831 28.9529 20.1816 28.0539 20.1816H0.483887ZM11.8709 11.8977H16.9329V4.382H11.8709V11.8977Z" fill="#166999"/>
</svg>
