<svg width="30" height="30" viewBox="0 0 30 30" fill="none" xmlns="http://www.w3.org/2000/svg">
<path fill-rule="evenodd" clip-rule="evenodd" d="M15 0C14.3529 0 13.7304 0.24453 13.2602 0.6834L1.76973 11.4042C1.21076 11.9256 0.76542 12.5542 0.46113 13.2514C0.15683 13.9486 -7.99694e-05 14.6998 3.05754e-08 15.459V27.4998C3.05754e-08 28.1629 0.26681 28.7988 0.74174 29.2677C1.21667 29.7366 1.86082 30 2.53247 30H27.4675C28.1392 30 28.7833 29.7366 29.2583 29.2677C29.7332 28.7988 30 28.1629 30 27.4998V15.459C30.0001 14.6998 29.8432 13.9486 29.5389 13.2514C29.2346 12.5542 28.7893 11.9256 28.2303 11.4043L16.7399 0.68348C16.2697 0.24461 15.6471 0 15 0ZM23.1818 20.2359C23.1008 20.4765 21.1207 26.1536 15 26.1536C8.8793 26.1536 6.8992 20.4765 6.8182 20.2359L9.957 19.23C10.0083 19.3824 11.3008 22.9453 15 22.9453C18.7275 22.9453 20.0124 19.3212 20.0409 19.2408L20.0413 19.2397L23.1818 20.2359Z" fill="#166999"/>
</svg>
