<svg width="29" height="25" viewBox="0 0 29 25" fill="none" xmlns="http://www.w3.org/2000/svg">
<path fill-rule="evenodd" clip-rule="evenodd" d="M4.09297 4.61588V0.707703H24.272C25.171 0.707703 25.304 1.40916 25.304 2.67848C25.304 3.98118 25.171 4.61588 24.272 4.61588H16.913C17.046 5.01668 17.212 5.41748 17.446 5.75158C18.9434 8.00544 21.9113 9.60935 24.5171 11.0175C24.9235 11.2372 25.3211 11.452 25.703 11.6639C26.369 12.0313 26.236 12.4321 25.504 13.7015C24.671 15.1712 24.505 15.3382 23.639 14.9708C20.809 13.7683 16.513 11.4969 14.449 8.59078C12.617 11.4635 7.68897 14.3027 5.49197 15.2714C4.69197 15.6054 4.39297 15.4718 3.59397 14.0689C2.82797 12.6994 2.62797 12.1649 3.36097 11.7641C5.72497 10.4948 9.12097 8.65758 10.719 6.55318C11.186 5.91858 11.585 5.31728 11.818 4.61588H4.09297ZM0.396973 24.0898V20.1816H27.968C28.867 20.1816 29 20.8831 29 22.1524C29 23.4551 28.867 24.0898 27.968 24.0898H0.396973Z" fill="#166999"/>
</svg>
