<svg width="30" height="32" viewBox="0 0 30 32" fill="none" xmlns="http://www.w3.org/2000/svg">
<path fill-rule="evenodd" clip-rule="evenodd" d="M6.76694 8.952C6.76694 8.1169 7.06694 7.3152 7.46594 6.6138H3.80294V3.03966H12.2939V0H16.7229V3.03966H24.6479C25.5469 3.03966 25.6799 3.57411 25.6799 4.84342C25.6799 6.1461 25.5469 6.6138 24.6479 6.6138H21.3849C21.7839 7.3152 22.1169 8.1169 22.1169 8.952C22.1169 11.7244 19.9529 13.7954 16.8889 14.4969V16.4342H28.0109C28.9099 16.4342 29.0429 17.0021 29.0429 18.2714C29.0429 19.5741 28.9099 20.0752 28.0109 20.0752H0.439941V16.4342H12.2939V14.5637C9.06394 13.929 6.76694 11.8246 6.76694 8.952ZM5.76794 30.4635C5.10194 29.7954 4.43594 28.7599 4.43594 28.0585V21.9457H24.7479V29.4948C24.7479 31.0647 23.9819 32 22.3839 32H8.49794C7.69894 32 6.53394 31.2651 5.76794 30.4635ZM9.46394 28.4593C9.09794 28.4593 8.93094 28.3591 8.93094 27.8914V25.4864H20.2529V28.4593H9.46394ZM14.4249 11.2902C16.2899 11.2902 17.6219 10.4551 17.6219 8.952C17.6219 7.4489 16.2899 6.6138 14.4249 6.6138C12.5939 6.6138 11.2619 7.4489 11.2619 8.952C11.2619 10.4551 12.5939 11.2902 14.4249 11.2902Z" fill="#166999"/>
</svg>
