<svg width="28" height="30" viewBox="0 0 28 30" fill="none" xmlns="http://www.w3.org/2000/svg">
<path fill-rule="evenodd" clip-rule="evenodd" d="M23.1882 0.569946H27.6169V28.1273C27.6169 28.8622 26.8177 29.0292 25.3859 29.0292C24.0207 29.0292 23.1882 28.8622 23.1882 28.1273V0.569946ZM16.462 11.8935V27.8267C16.462 28.5282 17.2612 28.6952 18.6264 28.6952C20.0249 28.6952 20.7908 28.5282 20.7908 27.8267V0.903976H16.462V7.98541H12.1666V11.8935H16.462ZM11.5672 21.5136C12.1317 22.2056 12.4009 22.0089 13.5427 21.1746C13.6134 21.123 13.6873 21.0689 13.7649 21.0125C14.8304 20.2109 15.0635 19.6764 14.564 19.0418C13.5318 17.8392 12.0001 15.6013 11.0678 13.4301C10.3019 11.5929 9.70252 9.45511 9.70252 7.35071V2.54072H5.00752V7.35071C5.00752 8.95411 4.74112 10.5908 4.30832 12.0939C3.54242 14.5992 1.94412 17.3716 0.212621 19.476C-0.286879 20.0772 0.112721 20.6451 1.21152 21.4802C2.44362 22.4489 2.84312 22.6493 3.44252 21.9812C4.84102 20.4113 6.60582 17.6722 7.57152 15.0334C8.53712 17.4718 10.202 19.9102 11.5672 21.5136Z" fill="#166999"/>
</svg>
